<?xml version="1.0" encoding="UTF-8" standalone="no"?>
<!DOCTYPE svg PUBLIC "-//W3C//DTD SVG 1.1//EN" "http://www.w3.org/Graphics/SVG/1.1/DTD/svg11.dtd">
<svg width="100%" height="100%" viewBox="0 0 331 544" version="1.1" xmlns="http://www.w3.org/2000/svg" xmlns:xlink="http://www.w3.org/1999/xlink" xml:space="preserve" xmlns:serif="http://www.serif.com/" style="fill-rule:evenodd;clip-rule:evenodd;stroke-linejoin:round;stroke-miterlimit:2;">
    <g id="PulcsiésFoltmékör" transform="matrix(1,0,0,1,-434,-177)">
        <g transform="matrix(1,0,0,1,718.7,316.6)">
            <path d="M0,266.9C-1.8,269.7 -3.7,272.6 -6,275.1C-8.101,277.4 -10.5,279.5 -13.3,281.1L-15.9,283L-16,283.1C-17.601,284.299 -19.101,285.7 -20.4,287.2L-6.8,287.2L-6.8,388.9C-6.8,391.5 -8.8,393.6 -11.3,393.6L-233.1,393.6C-235.6,393.6 -237.6,391.5 -237.6,388.9L-237.6,291.9C-237.6,290.9 -237.3,290 -236.8,289.2C-236,288 -234.7,287.2 -233.1,287.2L-220.9,287.2C-221.9,286 -222.7,284.7 -223.5,283.299C-223.6,283.299 -223.7,283.2 -223.8,283.2C-228.1,281.4 -231.4,278.299 -233.8,275.2C-235.9,272.5 -237.4,269.799 -238.3,268.2L-258.7,231.2C-264.7,220.299 -271.5,208 -272.1,193.4C-272.5,183.799 -270,174.7 -267.8,166.7C-266,160.299 -264.4,154.2 -264.2,148.4L-264.2,145C-264.3,140 -264.3,133.799 -261.3,127.7C-260.6,126.3 -259.9,125.2 -259.2,124.2C-258.9,123.8 -258.5,123.1 -258.3,122.8L-258.3,120.3C-259,100.6 -256.7,81 -251.4,62.1C-248,49.9 -244,40.6 -238.7,32.7C-225.7,13.1 -205,2.1 -184.2,-7.1C-187,-27.5 -188.2,-44.8 -185.3,-62.3C-181.7,-84.1 -171.6,-102.4 -156.9,-113.9C-146.5,-122 -133.2,-126.7 -120.4,-126.7C-111.4,-126.7 -102.9,-124.4 -95.8,-120C-73.5,-106.4 -70,-99.6 -63.8,-84.1C-63.4,-83.2 -63.101,-82.3 -62.7,-81.4C-60.4,-75.7 -59.4,-67.1 -58.601,-60.7C-58.4,-58.9 -58.2,-57.4 -58,-56.3C-57,-49.9 -57.2,-43.7 -57.4,-37.9L-58.5,-10.8C-41.4,-7.2 -31.101,1.5 -27.3,5.4C-25.8,6.9 -23.3,8.8 -20.8,10.6C-17.5,13.1 -14,15.6 -11.3,18.5C-8.3,21.7 -6.3,25.3 -4.8,28.4C3.3,45.1 6.8,62.9 10.3,80.2C12.3,90.5 14.399,101.2 17.5,111C19.1,116.3 21.1,121.6 23,126.8C24.899,131.9 26.899,137.2 28.6,142.7C30.6,149.2 32.3,155.9 33.6,162.6C40.899,201.7 16.3,240.9 0,266.9M45.2,160.2C43.8,153.1 42,145.9 39.8,139C38,133.299 36,127.9 34.1,122.6C32.2,117.6 30.3,112.3 28.8,107.4C25.899,98.1 23.899,87.8 21.899,77.8C18.3,59.8 14.7,41.1 5.899,23C4.1,19.3 1.399,14.4 -2.8,10C-6.3,6.4 -10.3,3.4 -13.9,0.8C-15.7,-0.5 -18.2,-2.4 -19,-3.2C-23.5,-7.7 -32.4,-15.1 -46.4,-19.9L-45.7,-37.6C-45.4,-44 -45.3,-50.8 -46.4,-58.3C-46.5,-59.2 -46.7,-60.7 -46.9,-62.3C-47.7,-69.3 -48.9,-78.9 -51.8,-86.1C-52.2,-87 -52.5,-87.9 -52.9,-88.8C-60.2,-106.9 -65.601,-115.7 -89.8,-130.4C-98.8,-135.9 -109.5,-138.8 -120.7,-138.8C-136.1,-138.8 -152.1,-133.2 -164.6,-123.4C-181.7,-110 -193.3,-89 -197.4,-64.3C-200.1,-47.9 -199.5,-32.2 -197.5,-14.4C-217,-5.2 -236.1,6.6 -249,26C-254.9,34.9 -259.5,45.4 -263.2,58.8C-268.7,78.6 -271.2,98.9 -270.6,119.4C-271.1,120.2 -271.6,121.2 -272.2,122.2C-276.6,130.9 -276.5,139.4 -276.4,145.1L-276.4,148C-276.5,152.299 -278,157.7 -279.6,163.5C-281.9,171.9 -284.8,182.4 -284.3,193.9C-283.6,211.299 -275.7,225.5 -269.4,237L-249,274C-248.7,274.5 -248.4,275.1 -248.1,275.7C-249.5,276.4 -250.4,277.9 -250.4,279.5L-250.4,395.799C-250.4,401.299 -246,405.7 -240.5,405.7L-4.3,405.7C1.2,405.7 5.6,401.299 5.6,395.799L5.6,279.7C7.2,277.6 8.7,275.4 10,273.299C27.399,245.7 53.6,204 45.2,160.2" style="fill:rgb(25,120,61);fill-rule:nonzero;"/>
        </g>
        <g transform="matrix(1,0,0,1,712.8,320.1)">
            <path d="M0,259.7C-2.8,264.1 -6.1,268.9 -11,271.6C-11.6,271.9 -12.2,272.3 -12.899,272.5L-13,273L-14.2,273.9C-16.399,275.5 -18.5,277.5 -20.3,279.6C-21.3,280.801 -22.3,282.1 -23.1,283.4C-23.1,283.5 -23.2,283.6 -23.3,283.7C-23.899,284.7 -25.1,286.3 -27.3,286.7C-28.8,287 -30,286.5 -30.8,286.2C-37.8,283.6 -45.5,284.6 -53.6,285.7C-55.5,285.9 -57.399,286.2 -59.2,286.4C-67.399,287.301 -75.7,287.301 -83.899,286.301C-85.1,286.2 -86.2,286 -87.399,285.9C-89.5,285.6 -91.5,285.4 -93.6,285.2C-97.899,284.9 -102.3,285 -106.6,285.2C-109.1,285.3 -111.6,285.3 -114,285.3C-117.7,285.3 -121.2,285.3 -124.7,285.6C-126,285.7 -127.5,285.9 -129,286C-136.2,286.8 -144.4,287.6 -152.2,287.6C-160.3,287.6 -167.8,286.6 -173.1,283.7C-174.5,282.9 -175.7,282 -176.8,280.9C-177.4,281.2 -177.9,281.5 -178.5,281.7C-179.9,282.4 -181.4,283 -182.9,283.7C-186.6,285.2 -190.7,286.3 -194.8,286.3C-197,286.3 -199.1,286 -201.3,285.2C-202.5,284.8 -203.6,284.3 -204.6,283.6C-206.4,282.5 -208,281.1 -209.3,279.5C-210.7,277.8 -211.8,275.9 -212.5,273.8C-214.6,273.5 -216.4,272.6 -218,271.5C-222.2,268.5 -224.9,263.7 -226.3,261.2L-246.7,224.2C-252.3,214 -258.7,202.4 -259.2,189.5C-259.6,181 -257.3,172.8 -255.2,164.9C-253.3,158 -251.6,151.6 -251.4,144.9L-251.4,141.2C-251.5,136.7 -251.5,131.7 -249.2,127.1C-248.7,126.1 -248.1,125.2 -247.5,124.3C-246.8,123.2 -246.1,122.2 -245.8,121.2C-245.4,119.9 -245.4,118.2 -245.5,116.5L-245.5,116.3C-246.2,97.4 -244,78.5 -238.9,60.2C-235.7,48.8 -232,40.1 -227.2,32.8C-213.7,12.6 -190.3,1.8 -170.7,-6.7C-171.1,-8.4 -171.4,-10.1 -171.6,-11.6C-174.3,-31.5 -175.5,-48.2 -172.7,-64.9C-169.4,-84.9 -160.2,-101.7 -146.9,-112.2C-137.7,-119.4 -126,-123.5 -114.7,-123.5C-107,-123.5 -99.8,-121.5 -93.7,-117.9C-72.5,-104.9 -70.1,-99.2 -64.5,-85.4C-64.1,-84.5 -63.8,-83.6 -63.399,-82.6C-61.399,-77.8 -60.5,-69.7 -59.8,-63.8C-59.6,-62 -59.399,-60.4 -59.2,-59.2C-58.3,-53.4 -58.5,-47.6 -58.7,-42.1L-59.8,-13.7C-59.899,-12.3 -59.899,-10.6 -60.2,-8.8C-41.4,-6.5 -30.5,2.5 -26.5,6.5C-24.6,8.4 -21.9,10.4 -19.2,12.4C-16.1,14.7 -12.9,17 -10.6,19.5C-8.2,22 -6.7,24.9 -5.3,27.6C2.4,43.4 5.9,60.8 9.2,77.7C11.3,88.2 13.4,99 16.5,109.2C18.2,114.6 20.2,120.1 22.2,125.4C24.1,130.4 26,135.7 27.6,140.9C29.6,147.2 31.2,153.6 32.4,160C39.4,196.8 15.7,234.6 0,259.7M39.3,159C38,152.3 36.3,145.6 34.3,139.1C32.601,133.7 30.601,128.4 28.7,123.2C26.8,118 24.8,112.6 23.2,107.4C20.2,97.5 18.101,86.9 16,76.6C12.601,59.3 9.101,41.4 0.9,24.8C-0.6,21.7 -2.6,18 -5.6,14.9C-8.399,12 -11.8,9.5 -15.1,7C-17.6,5.2 -20.1,3.3 -21.6,1.8C-25.5,-2.1 -35.7,-10.8 -52.8,-14.4L-51.7,-41.5C-51.5,-47.3 -51.3,-53.5 -52.3,-59.9C-52.5,-61 -52.6,-62.5 -52.899,-64.3C-53.6,-70.6 -54.7,-79.3 -57,-85C-57.399,-85.9 -57.8,-86.9 -58.1,-87.7C-64.3,-103.2 -67.8,-110 -90.1,-123.6C-97.3,-128 -105.8,-130.3 -114.7,-130.3C-127.5,-130.3 -140.8,-125.6 -151.2,-117.5C-165.9,-106 -176,-87.6 -179.6,-65.9C-182.5,-48.4 -181.3,-31.1 -178.5,-10.7C-199.3,-1.5 -220,9.5 -233,29.1C-238.2,37 -242.3,46.3 -245.7,58.5C-251,77.5 -253.3,97 -252.6,116.7L-252.6,116.9C-252.6,117.6 -252.5,118.7 -252.6,119.2C-252.8,119.5 -253.2,120.2 -253.5,120.6C-254.1,121.6 -254.9,122.7 -255.6,124.1C-258.7,130.2 -258.6,136.4 -258.5,141.4L-258.5,144.801C-258.7,150.6 -260.3,156.7 -262.1,163.1C-264.3,171.1 -266.8,180.2 -266.4,189.801C-265.8,204.4 -259,216.7 -253,227.6L-232.6,264.6C-231.7,266.2 -230.3,268.801 -228.1,271.6C-225.7,274.7 -222.4,277.801 -218.1,279.6C-218,279.6 -217.9,279.7 -217.8,279.7C-217.1,281.1 -216.2,282.4 -215.2,283.6L-227.4,283.6C-228.9,283.6 -230.3,284.4 -231.1,285.6C-231.6,286.4 -231.9,287.301 -231.9,288.301L-231.9,385.301C-231.9,387.9 -229.9,390 -227.4,390L-5.6,390C-3.1,390 -1.1,387.9 -1.1,385.301L-1.1,283.6L-14.7,283.6C-13.399,282.1 -11.899,280.7 -10.3,279.5L-10.2,279.4L-7.6,277.5C-4.8,275.9 -2.399,273.801 -0.3,271.5C2,269 3.9,266.1 5.7,263.301C22.2,237.4 46.8,198.2 39.3,159" style="fill:rgb(106,167,78);fill-rule:nonzero;"/>
        </g>
        <g transform="matrix(1,0,0,1,695.5,593.7)">
            <path d="M0,0.1C0.4,0.1 0.8,0.1 1.2,0C0.8,0 0.4,0.1 0,0.1" style="fill:rgb(106,167,78);fill-rule:nonzero;"/>
        </g>
        <g transform="matrix(1,0,0,1,576.9,576.4)">
            <path d="M0,-244.1C-2.3,-245 -4.5,-245.8 -6.7,-246.4C-8.6,-246.9 -10.7,-247.3 -12.8,-247.7C-19.7,-249 -27.4,-250.4 -31.8,-256.4C-44.7,-250.9 -59.2,-244.3 -71,-234.9C-69.2,-232 -66.8,-229.4 -64.3,-226.6C-61.8,-223.8 -59.1,-220.9 -57,-217.6C-48,-203.7 -49.8,-186.1 -52.4,-172.3L-52.8,-170.2C-53.6,-166 -54.3,-162.1 -54.5,-158.1C-54.7,-152.9 -53.8,-147.7 -52.9,-142.2C-52.2,-138 -51.5,-133.6 -51.3,-129.1C-50.8,-118 -53.4,-107.2 -55.9,-96.6C-59.1,-83.4 -62.1,-71 -59.2,-58.8C-57.2,-50.5 -52.8,-43.2 -48,-35.3C-46.4,-32.6 -44.7,-29.9 -43.2,-27.2C-42.6,-27.8 -42,-28.4 -41.5,-29C-40,-30.6 -38.5,-32.1 -36.8,-33.9C-35.8,-34.9 -34.7,-36.1 -33.3,-37.1C-28.9,-40.2 -23.6,-40.4 -19.4,-40.7L7,-42.1C9.5,-42.2 11.9,-41.3 13.7,-39.5C15.5,-37.7 16.4,-35.3 16.2,-32.8L15.5,-22.5C15.2,-18.1 15.4,-14 15.6,-9.5C15.7,-6.6 15.8,-3.6 15.8,-0.5C15.8,-0.3 15.9,0.1 15.9,0.4C16.2,1.8 16.8,5.2 13.5,7.4C12.4,8.1 11,8.6 9.5,8.6C4,8.8 -1.2,9 -6.4,9.1C-11.6,9.3 -16.8,9.5 -22.3,9.6C-23.6,9.6 -25,9.7 -26.5,9.7C-29.2,9.7 -32,9.5 -34.8,9C-34.7,9.3 -34.7,9.6 -34.6,9.9C-30,11.4 -25.2,12.3 -20.4,12.3C-18,12.3 -15.6,12.2 -13.2,12.1L17.8,10.4L17.8,-240C13.7,-240.2 9.8,-240.8 6.1,-241.9C4.2,-242.5 2.1,-243.3 0,-244.1" style="fill:rgb(106,167,78);fill-rule:nonzero;"/>
        </g>
        <g transform="matrix(1,0,0,1,554.7,541.7)">
            <path d="M0,37.8C5.5,37.6 10.7,37.4 15.9,37.3C21,37.1 26.1,36.9 31.5,36.8C31.4,36.199 31.2,35.4 31.2,34.6C31.2,31.6 31.1,28.699 31,25.8C30.8,21.199 30.6,16.8 30.9,12.1L31.6,1.8C31.6,1.1 31.3,0.6 31.1,0.4C30.9,0.199 30.4,-0.2 29.7,-0.1L3.3,1.3C-1,1.5 -4.4,1.8 -6.9,3.6C-7.8,4.199 -8.6,5 -9.5,5.9C-11.2,7.699 -12.7,9.199 -14.2,10.699C-15.2,11.8 -16.4,12.9 -17.6,14.199C-15.6,18.6 -14,23.1 -13.2,28C-12.8,30.199 -12.6,33.4 -14.4,36.1C-10.5,37.9 -5.5,38 0,37.8" style="fill:rgb(106,167,78);fill-rule:nonzero;"/>
        </g>
        <g transform="matrix(1,0,0,1,532.4,600.6)">
            <path d="M0,-17.8L-21.2,-8.9L-22.3,-8.4C-23.1,-8.1 -24,-7.7 -24.9,-7.4C-23.6,-4.9 -21.3,-2.8 -18.6,-1.9C-13.1,0 -6.6,-2.5 -1.1,-5.1C0.4,-5.8 1.8,-6.5 3.3,-7.3C3.4,-7.8 3.4,-8.4 3.4,-8.9C3.5,-11 3.4,-12.8 2.7,-14.3C2.2,-15.6 1.1,-16.7 0,-17.8" style="fill:rgb(106,167,78);fill-rule:nonzero;"/>
        </g>
        <g transform="matrix(1,0,0,1,649.1,579.799)">
            <path d="M0,-38.4C-0.3,-39 -0.899,-39.299 -1.6,-39.299L-27.699,-39.4C-29.899,-39.4 -33.399,-39.099 -35.3,-38.599C-36.399,-38.299 -37.399,-38.299 -38.3,-38.299C-38.899,-34.9 -39,-31.4 -38.699,-27.9L-38.699,-27.7L-38.8,-24.799L-38.8,0.5C-36.5,1 -33.6,1 -30,0.8L-1.3,-0.299C1.9,-0.399 5.2,-0.599 7.9,-1.7C8.301,-1.9 8.5,-2 8.7,-2.2C7.801,-3.9 7.5,-5.599 7.5,-7.299C7.2,-10.299 7.801,-13.7 9.5,-17.399C9.9,-18.399 10.4,-19.299 10.801,-20.299C11.5,-21.799 12.2,-23.2 12.7,-24.599C7.4,-28.099 3,-32.799 0,-38.4" style="fill:rgb(106,167,78);fill-rule:nonzero;"/>
        </g>
        <g transform="matrix(1,0,0,1,677.3,593.9)">
            <path d="M0,-5.4C-2.8,-6.9 -5.5,-8.3 -8.2,-9.2C-8.7,-9.4 -9.3,-9.6 -9.899,-9.7C-11.2,-10.1 -12.6,-10.6 -14,-11.2C-14.5,-10.4 -14.899,-9.2 -15.1,-7.7C-15.3,-6.8 -15.399,-5.501 -15.3,-4.501C-15.2,-3.7 -14.8,-2.9 -14.3,-2.1C-13.8,-1.3 -13.1,-0.6 -12.2,0.1C-10.399,1.6 -8.1,2.6 -5.7,3.7L-5.8,3.9C-1.6,3.9 2.601,4.3 6.7,5.8C8.101,3.6 9.8,1.5 11.601,-0.4C9.9,-0.8 8.3,-1.4 6.7,-2C4.3,-3.1 2.101,-4.3 0,-5.4" style="fill:rgb(106,167,78);fill-rule:nonzero;"/>
        </g>
        <g transform="matrix(-0.984425,0.175806,0.175806,0.984425,697.578,502.433)">
            <path d="M-6.478,-2.026L4.898,-2.026C0.383,-0.001 -5.67,-0.342 -11.302,-1.165L-11.222,-1.28C-10.226,-1.966 -8.402,-1.987 -6.478,-2.026" style="fill:rgb(106,167,78);fill-rule:nonzero;"/>
        </g>
        <g transform="matrix(1,0,0,1,629.5,557.9)">
            <path d="M0,-207.8L36.1,-207.8L26.9,-190.1L33.3,-190.1L24.1,-173.8L34.8,-173.8L6.1,-145.1L-17.9,-175.1L-5.6,-175.1L-3.3,-178.8L-17.9,-178.8L0,-207.8ZM-10.1,29.7C-11.5,29.8 -12.8,29.8 -14.1,29.8C-16.8,29.8 -20.4,29.6 -23.9,28.3L-26.2,27.4L-26.1,-5.6C-26.5,-10.1 -26.3,-14.6 -25.4,-19.1C-24.8,-22.001 -22.7,-23.501 -19.2,-23.501L-18.8,-23.501C-18.4,-23.501 -17.9,-23.501 -17.6,-23.6C-15,-24.3 -10.9,-24.7 -8.2,-24.7L-8.1,-24.7L18,-24.6C21.2,-24.6 24.2,-22.8 25.7,-20.001C28.1,-15.7 31.5,-11.9 35.5,-9.001C36.2,-10.4 36.8,-11.8 37.5,-13.2C43.8,-26.6 49.8,-39.2 50.9,-53.2L50.9,-53.3C51,-54.2 51,-55.2 51.3,-56.2C46.1,-62.6 45.3,-72.1 45.3,-80.9L45.3,-123.7L49.3,-123.7C49.2,-129.3 48.6,-134.8 47.2,-140.1C45.5,-146.5 44.601,-153.2 44.5,-159.8L48.8,-160L41.8,-159.7C41.7,-162.8 41.5,-165.901 41.4,-169C41,-179 40.4,-192.7 47.1,-203.5C48.2,-205.3 49.5,-207 50.8,-208.6C51.5,-209.5 52.2,-210.401 52.9,-211.3C55,-214.2 56.6,-217.901 57.9,-221.2C55.7,-222.8 53.6,-224.5 51.9,-226.2C44.5,-233.6 32.9,-238.5 20.5,-239.7C20.4,-239.5 20.2,-239.3 20,-239.1C17.9,-236.6 15,-235.3 12.6,-234.2C-0.8,-228.2 -14,-222.8 -27.5,-221.7L-27.5,29.9C-21.1,31.9 -14,31.499 -6.5,30.999C-3.4,30.799 -0.1,30.6 3.1,30.6C5.9,30.6 8.7,30.7 11.4,30.9C16.3,31.1 21,31.4 25.5,30.799C25.5,29.799 25.6,28.9 25.7,28.1C23.3,28.6 20.8,28.6 18.6,28.7L-10.1,29.7Z" style="fill:rgb(106,167,78);fill-rule:nonzero;"/>
        </g>
        <g transform="matrix(1,0,0,1,550.1,211.8)">
            <path d="M0,103.1C2.6,107.6 8.8,108.8 15.3,110C0.8,90.6 1.1,63.6 6.5,44.6C10.8,29.5 17.8,18.1 27.4,11C39.6,1.9 55.8,0.6 67,8C71.5,11 75.5,15.5 79.1,21.7C94.6,48.2 92.5,84.8 75.1,111.3C79.7,109.5 84.4,107.5 89.1,105.4C91,104.6 92.9,103.7 94,102.4C95.5,100.6 95.7,97.7 95.9,94.4L97,66C97.2,60.9 97.3,55.4 96.5,50.2C96.3,48.9 96.1,47.3 95.9,45.4C95.2,39.9 94.4,32.3 92.8,28.4C92.4,27.4 92,26.5 91.7,25.6C86.4,12.6 84.7,8.2 65.4,-3.6C60.4,-6.6 54.4,-8.2 48.1,-8.2C38.4,-8.2 28.2,-4.6 20.3,1.6C8.4,11 0.1,26.2 -2.9,44.5C-5.5,60.4 -4.3,76.5 -1.7,95.8C-1.6,98.4 -1.2,101.1 0,103.1" style="fill:rgb(149,180,120);fill-rule:nonzero;"/>
        </g>
        <g transform="matrix(1,0,0,1,625,327.1)">
            <path d="M0,-18.1C-15.2,-20.2 -31.7,-20.3 -49.1,-18.6L-58.9,-17.6C-56.2,-11.9 -52.4,-6.6 -47.3,-2.2L-47.4,-2.1C-46.8,-1.9 -46.2,-1.6 -45.5,-1.4C-43.5,-0.6 -41.6,0.1 -39.7,0.6C-36,1.7 -32,2.2 -27.8,2.2C-22.4,2.2 -16.9,1.3 -11.4,-0.2C-6.8,-5.4 -3,-11.5 0,-18.1" style="fill:rgb(149,180,120);fill-rule:nonzero;"/>
        </g>
        <g transform="matrix(1,0,0,1,623.2,284.9)">
            <path d="M0,-47.8C-3.101,-53.1 -6.4,-56.8 -10,-59.2C-19.7,-65.7 -33.2,-62.7 -41.5,-56.5C-49.8,-50.3 -56,-40.2 -59.9,-26.5C-63.5,-13.7 -64.7,3 -59.9,17.9L-48.1,16.7C-29.4,14.8 -11.8,15.1 4.399,17.4C12,-4.1 10.899,-29.1 0,-47.8" style="fill:rgb(149,180,120);fill-rule:nonzero;"/>
        </g>
        <g transform="matrix(1,0,0,1,466.1,425)">
            <path d="M0,83.3L-1.6,78.6C6.8,75.8 15,72 22.6,67.4L25.2,71.7C17.3,76.5 8.8,80.4 0,83.3M56.9,119.8C52.1,111.9 47.1,103.7 44.9,94.3C44.6,92.9 44.3,91.4 44.1,90L37.7,88.1C35.3,87.4 32.8,86.7 30.4,86.5C24.5,86 18.2,89 14.9,94L10.8,91.2C15.2,84.7 23,80.9 30.9,81.5C33.8,81.7 36.6,82.5 39.2,83.3L43.7,84.6C43.3,74 45.8,63.4 48.3,53.2C50.7,43.1 53.2,32.7 52.7,22.7C52.5,18.6 51.8,14.6 51.1,10.4C50.2,4.8 49.2,-1 49.4,-6.9C49.6,-11.4 50.4,-15.8 51.2,-20.1L51.6,-22.1C53.9,-34.6 55.6,-50.5 48,-62.4C46.2,-65.3 43.9,-67.8 41.4,-70.5C39,-73.1 36.6,-75.8 34.5,-78.8C31.1,-75.5 28,-72 25.4,-68C21,-61.4 17.6,-53.3 14.6,-42.6C9.7,-25 7.5,-6.9 8.2,11.3L8.2,11.5C8.3,13.7 8.4,16.1 7.6,18.6C7,20.5 6,22 5.1,23.4C4.6,24.2 4.2,24.9 3.8,25.6C2.3,28.6 2.3,32.4 2.4,36.4L2.4,40.3C2.2,47.8 0.2,55 -1.7,61.9C-3.8,69.6 -5.8,76.9 -5.5,84.3C-5,95.6 0.9,106.4 6.2,115.9L26.6,152.9C28.8,156.9 31.8,161.5 35.5,162.1C35.6,162.1 35.7,162 35.8,162C36.3,161.9 36.8,161.9 37.3,162C38.6,161.8 40,161.2 41.4,160.6L66.1,150.2C66.9,149.8 68.1,149.4 68.5,148.9C68.7,148.6 69,147.7 68.6,145.7C67.1,136.5 62.1,128.4 56.9,119.8" style="fill:rgb(149,180,120);fill-rule:nonzero;"/>
        </g>
        <g transform="matrix(1,0,0,1,557.8,599.298)">
            <path d="M0,-3.098L-1.1,-3.098C-5.9,-3.199 -10.6,-3.899 -15.1,-5.199C-15.2,-4.498 -15.3,-3.899 -15.4,-3.199L-15.6,-2.098C-13.9,-0.899 -11.6,-0.098 -8.8,0.502C-0.9,2.101 10.4,1.402 19.4,0.502C21.5,0.301 23.5,0.101 25.3,-0.098C26.8,-0.298 28.3,-0.399 29.6,-0.498C32.1,-0.798 34.7,-0.798 37.2,-0.798L37.2,-4.798L6.6,-3.098C4.5,-3.199 2.2,-3.098 0,-3.098" style="fill:rgb(149,180,120);fill-rule:nonzero;"/>
        </g>
        <g transform="matrix(1,0,0,1,657,599.9)">
            <path d="M0,-4.6C-5.5,-3.7 -11.1,-4 -16.5,-4.2C-19.1,-4.3 -21.8,-4.5 -24.4,-4.5C-27.4,-4.5 -30.5,-4.3 -33.6,-4.1C-36.9,-3.9 -40.2,-3.7 -43.6,-3.7C-47.4,-3.7 -51.3,-3.999 -55.1,-4.9L-55.1,-1.6C-53.8,-1.6 -52.5,-1.6 -51.2,-1.7C-46.7,-1.9 -42,-2.1 -37.3,-1.7C-35.1,-1.499 -32.9,-1.2 -30.7,-0.999C-29.6,-0.9 -28.5,-0.7 -27.3,-0.6C-26.5,-0.499 -25.6,-0.4 -24.8,-0.3C-18.5,0.3 -12.2,0.3 -5.9,-0.3C-5.3,-0.4 -4.7,-0.4 -4.2,-0.499C-2.4,-0.7 -0.6,-0.9 1.3,-1.2C1.8,-1.3 2.3,-1.3 2.8,-1.4C1.7,-2.2 0.7,-3.4 0,-4.6" style="fill:rgb(149,180,120);fill-rule:nonzero;"/>
        </g>
        <g transform="matrix(1,0,0,1,738.3,447.199)">
            <path d="M0,34.501C-1.2,28.301 -2.7,22.2 -4.6,16.2C-6.2,11.101 -8.1,6.001 -9.899,1.001C-11.899,-4.399 -13.899,-9.999 -15.7,-15.599C-19,-26.199 -21.1,-37.199 -23.2,-47.899C-26.399,-64.299 -29.8,-81.299 -37.1,-96.299C-38.2,-98.599 -39.5,-100.899 -41.2,-102.699C-42.3,-103.799 -43.7,-104.999 -45.2,-106.199C-46.5,-102.899 -48.2,-99.399 -50.3,-96.599C-51,-95.599 -51.8,-94.599 -52.5,-93.699C-53.7,-92.199 -54.8,-90.699 -55.8,-89.199C-60.899,-80.899 -60.899,-70.499 -60.399,-58.699C-60.3,-55.599 -60.1,-52.499 -60,-49.399L-64.3,-49.199C-64.2,-42.599 -63.3,-35.899 -61.6,-29.499C-60.199,-24.099 -59.6,-18.599 -59.5,-13.099L-56.5,-13.099L-56.5,29.7C-56.5,36.501 -56,43.7 -53.1,48.601C-51.699,47.9 -50.199,47.7 -49.199,47.501L-36,45.101C-33.6,44.7 -30,44.001 -26.699,45.7C-24.5,46.9 -22.8,49.301 -22.6,51.801C-22.399,54.001 -23.199,56.101 -24.8,57.4L-25.3,57.801L-25.899,58.001C-34,60.801 -43.199,63.301 -51.199,59.501C-52.6,74.101 -59,87.501 -65.1,100.4C-68.1,106.801 -71.199,113.301 -73.699,119.9C-74.199,121.301 -74.8,123.2 -74.899,124.801C-74.8,125.101 -74.8,125.501 -74.6,125.801C-74.5,126.001 -74.399,126.201 -74.3,126.4C-74.1,126.9 -73.899,127.4 -73.7,128.001C-72.6,128.9 -70.8,129.501 -68.899,130.101C-68.3,130.301 -67.7,130.501 -67.1,130.7C-63.899,131.801 -60.899,133.4 -57.899,135.001C-52.399,137.9 -47.2,140.7 -42.3,139.301C-37.7,138.001 -34.399,133.2 -31.6,128.801C-16.3,104.7 6.5,68.301 0,34.501" style="fill:rgb(149,180,120);fill-rule:nonzero;"/>
        </g>
        <g transform="matrix(1,0,0,1,638.7,387.3)">
            <path d="M0,-15.2L-10.9,2.4L-12.601,2.4L-2.5,15L8.7,3.8L2.899,3.8L12.1,-12.6L6.1,-12.6L15.399,-30.2L-5.3,-30.2L-14.601,-15.2L0,-15.2Z" style="fill:rgb(218,220,53);fill-rule:nonzero;"/>
        </g>
        <g transform="matrix(-0.575404,-0.817869,-0.817869,0.575404,465.184,496.091)">
            <path d="M-10.512,-21.357C-9.902,-12.494 -8.291,-3.602 -5.748,4.88L-10.512,6.275C-13.204,-2.591 -14.906,-11.786 -15.526,-21.009L-10.512,-21.357Z" style="fill-rule:nonzero;"/>
        </g>
        <g transform="matrix(1,0,0,1,692.4,303.6)">
            <path d="M0,197.7L11.199,195.7C13.1,195.4 14.899,195.1 16,195.6C16,195.6 16.1,195.6 16.1,195.7C10.6,197.5 4.8,199 0,197.7M14.399,272.5C11.6,276.9 8.3,281.7 3.699,283C-1.2,284.4 -6.4,281.6 -11.9,278.7C-14.801,277.1 -17.9,275.5 -21.101,274.4C-21.7,274.2 -22.301,274 -22.9,273.8C-24.801,273.2 -26.601,272.6 -27.7,271.7C-27.9,271.1 -28.101,270.6 -28.301,270.1C-28.4,269.9 -28.5,269.7 -28.601,269.5C-28.7,269.2 -28.801,268.9 -28.9,268.5C-28.801,266.9 -28.2,265.1 -27.7,263.6C-25.301,257 -22.2,250.5 -19.101,244.1C-13,231.2 -6.7,217.801 -5.2,203.2C2.8,207 12,204.5 20.1,201.7L20.699,201.5L21.199,201.1C22.8,199.801 23.6,197.7 23.399,195.5C23.1,192.9 21.5,190.5 19.3,189.4C16,187.7 12.399,188.301 10,188.801L-3.2,191.2C-4.2,191.4 -5.7,191.6 -7.101,192.301C-10.101,187.4 -10.601,180.2 -10.5,173.4L-10.5,130.6L-17.5,130.6L-17.5,173.4C-17.5,182.2 -16.7,191.7 -11.5,198.1C-11.7,199.1 -11.801,200.1 -11.9,201L-11.9,201.1C-12.9,215 -18.9,227.7 -25.301,241.1C-26,242.5 -26.601,243.9 -27.301,245.301C-31.301,242.5 -34.801,238.7 -37.101,234.301C-38.601,231.5 -41.601,229.801 -44.801,229.7L-70.9,229.6L-71,229.6C-73.7,229.6 -77.801,230 -80.4,230.7C-80.7,230.801 -81.2,230.801 -81.601,230.801L-82,230.801C-85.5,230.801 -87.601,232.301 -88.2,235.2C-89.101,239.6 -89.301,244.2 -88.9,248.7L-89,281.7L-86.7,282.6C-83.2,283.9 -79.601,284.1 -76.9,284.1C-75.601,284.1 -74.301,284.1 -72.9,284L-44.2,282.9C-42,282.801 -39.5,282.7 -37.101,282.301C-37.2,283.1 -37.301,284 -37.301,285C-41.801,285.6 -46.5,285.4 -51.4,285.1C-54.101,285 -56.9,284.801 -59.7,284.801C-62.9,284.801 -66.2,285 -69.301,285.2C-76.7,285.7 -83.801,286.1 -90.301,284.1L-90.301,32.6C-76.801,31.5 -63.7,26.1 -50.2,20.1C-47.9,19.1 -45,17.8 -42.801,15.2C-42.601,15 -42.5,14.8 -42.301,14.6C-29.9,15.8 -18.301,20.7 -10.9,28.1C-9.2,29.8 -7.101,31.5 -4.9,33.1C-6.101,36.4 -7.801,40.1 -9.9,43C-10.601,43.9 -11.301,44.8 -12,45.7C-13.2,47.3 -14.5,49 -15.7,50.8C-22.4,61.6 -21.801,75.3 -21.4,85.3C-21.301,88.4 -21.101,91.5 -21,94.6L-14,94.3C-14.101,91.2 -14.301,88.1 -14.4,85C-14.9,73.2 -14.9,62.8 -9.801,54.5C-8.9,53 -7.7,51.5 -6.5,50C-5.801,49.1 -5,48.1 -4.301,47.1C-2.2,44.2 -0.5,40.7 0.8,37.5C2.3,38.7 3.8,39.9 4.8,41C6.5,42.8 7.8,45.1 8.899,47.4C16.199,62.4 19.6,79.4 22.8,95.8C24.899,106.5 27.1,117.5 30.3,128.1C32,133.7 34.1,139.3 36.1,144.7C37.899,149.7 39.8,154.8 41.399,159.9C43.3,165.9 44.8,172.1 46,178.2C52.399,211.9 29.6,248.3 14.399,272.5M-3.601,289.8C-5.4,291.7 -7,293.8 -8.5,296C-12.601,294.6 -16.801,294.1 -21,294.1L-20.9,293.9C-23.301,292.8 -25.5,291.8 -27.4,290.3C-28.301,289.6 -29,288.9 -29.5,288.1C-30,287.3 -30.4,286.5 -30.5,285.7C-30.7,284.7 -30.5,283.4 -30.301,282.5C-30,281 -29.601,279.8 -29.2,279C-27.801,279.6 -26.4,280.1 -25.101,280.5C-24.5,280.7 -24,280.8 -23.4,281C-20.7,281.9 -18.101,283.3 -15.2,284.8C-13.101,285.9 -10.9,287.1 -8.601,288.1C-6.9,288.8 -5.301,289.4 -3.601,289.8M3.1,290.2C3.5,290.2 3.899,290.1 4.3,290C4,290.2 3.5,290.2 3.1,290.2M-60.2,296.1C-61,296 -61.9,295.9 -62.7,295.8C-63.801,295.7 -64.9,295.5 -66.101,295.4C-68.2,295.1 -70.4,294.8 -72.7,294.7C-77.4,294.3 -82,294.5 -86.601,294.7C-87.9,294.8 -89.2,294.8 -90.5,294.8L-90.5,291.5C-86.7,292.4 -82.9,292.7 -79,292.7C-75.7,292.7 -72.301,292.5 -69,292.3C-66,292.1 -62.801,291.9 -59.801,291.9C-57.2,291.9 -54.5,292 -51.9,292.2C-46.5,292.5 -40.9,292.7 -35.4,291.8C-34.601,293 -33.7,294.1 -32.5,295.2C-33,295.3 -33.5,295.3 -34,295.4C-35.801,295.6 -37.7,295.9 -39.5,296.1C-40.101,296.2 -40.7,296.2 -41.2,296.3C-47.601,296.7 -53.9,296.7 -60.2,296.1M-150.101,293.6L-149.9,292.5C-149.8,291.9 -149.7,291.2 -149.601,290.5C-145,291.8 -140.3,292.5 -135.601,292.6L-134.5,292.6C-132.3,292.6 -130,292.5 -127.9,292.4L-97.3,290.7L-97.3,294.7C-99.8,294.7 -102.4,294.8 -104.9,295C-106.2,295.1 -107.7,295.3 -109.2,295.4C-111,295.6 -113,295.8 -115.101,296C-124.101,296.9 -135.3,297.6 -143.3,296C-146.101,295.6 -148.4,294.8 -150.101,293.6M-160,279.2C-158.8,280.3 -157.8,281.5 -157.2,282.7C-156.5,284.2 -156.4,286 -156.5,288.1C-156.5,288.6 -156.601,289.1 -156.601,289.7C-158,290.5 -159.5,291.2 -161,291.9C-166.601,294.6 -173,297 -178.5,295.1C-181.2,294.2 -183.5,292.1 -184.8,289.6C-183.9,289.3 -183,288.9 -182.2,288.6L-181.101,288.1L-160,279.2ZM-199.8,274.4L-220.2,237.4C-225.5,227.9 -231.4,217.1 -231.9,205.8C-232.2,198.4 -230.2,191.1 -228.101,183.4C-226.2,176.4 -224.2,169.3 -224,161.8L-224,157.9C-224.101,153.9 -224.101,150.1 -222.601,147.1C-222.3,146.4 -221.8,145.7 -221.3,144.9C-220.4,143.5 -219.4,142 -218.8,140.1C-218,137.6 -218.101,135.2 -218.2,133L-218.2,132.8C-218.9,114.6 -216.7,96.4 -211.8,78.9C-208.8,68.2 -205.4,60.1 -201,53.5C-198.4,49.6 -195.3,46 -191.9,42.7C-189.8,45.8 -187.4,48.4 -185,51C-182.5,53.7 -180.2,56.3 -178.4,59.1C-170.8,71 -172.5,86.9 -174.8,99.4L-175.201,101.4C-176,105.7 -176.8,110.1 -177,114.6C-177.201,120.5 -176.201,126.3 -175.3,131.9C-174.601,136.1 -173.9,140.1 -173.701,144.2C-173.201,154.3 -175.701,164.6 -178.101,174.7C-180.601,185 -183.101,195.5 -182.701,206.1L-187.201,204.8C-189.9,204 -192.601,203.2 -195.5,203C-203.3,202.4 -211.201,206.2 -215.601,212.7L-211.5,215.5C-208.201,210.6 -201.9,207.5 -196,208C-193.601,208.2 -191.101,208.9 -188.701,209.6L-182.301,211.5C-182.101,212.9 -181.801,214.4 -181.5,215.8C-179.301,225.1 -174.301,233.3 -169.5,241.3C-164.301,249.9 -159.301,258 -157.9,267.3C-157.601,269.3 -157.801,270.2 -158,270.5C-158.4,271 -159.5,271.5 -160.4,271.8L-185.101,282.2C-186.5,282.8 -187.9,283.4 -189.201,283.6C-189.701,283.5 -190.201,283.5 -190.701,283.6C-190.801,283.6 -190.9,283.6 -191,283.7C-194.601,283 -197.601,278.4 -199.8,274.4M-147.4,16.4C-142.9,22.4 -135.2,23.9 -128.4,25.1C-126.2,25.5 -124.2,25.9 -122.3,26.4C-120.101,27 -117.9,27.8 -115.601,28.7C-113.601,29.5 -111.4,30.3 -109.2,30.9C-105.5,32 -101.601,32.6 -97.5,32.8L-97.5,283.7L-128.5,285.4C-130.9,285.5 -133.3,285.7 -135.7,285.6C-140.5,285.5 -145.3,284.7 -149.9,283.2C-150,282.9 -150,282.6 -150.101,282.3C-147.3,282.9 -144.4,283 -141.8,283C-140.3,283 -138.9,283 -137.601,282.9C-132.101,282.7 -126.9,282.5 -121.7,282.4C-116.5,282.2 -111.3,282 -105.8,281.9C-104.3,281.9 -102.9,281.4 -101.8,280.7C-98.5,278.5 -99.2,275.1 -99.4,273.7C-99.5,273.4 -99.5,273 -99.5,272.8C-99.5,269.6 -99.6,266.6 -99.7,263.8C-99.9,259.4 -100.101,255.2 -99.8,250.8L-99.1,240.5C-98.9,238 -99.9,235.5 -101.6,233.8C-103.4,232 -105.8,231.1 -108.3,231.2L-134.7,232.6C-138.9,232.8 -144.2,233.1 -148.601,236.2C-150,237.2 -151.101,238.3 -152.101,239.4C-153.8,241.2 -155.3,242.7 -156.8,244.3C-157.4,244.9 -157.9,245.5 -158.5,246.1C-160,243.3 -161.7,240.6 -163.3,238C-168.101,230.2 -172.5,222.8 -174.5,214.5C-177.4,202.3 -174.4,189.8 -171.2,176.7C-168.7,166.2 -166,155.301 -166.601,144.2C-166.8,139.7 -167.5,135.3 -168.2,131.1C-169.101,125.6 -170,120.4 -169.8,115.2C-169.7,111.2 -168.9,107.2 -168.101,103.1L-167.7,101C-165.101,87.2 -163.4,69.6 -172.3,55.7C-174.4,52.4 -177.1,49.5 -179.6,46.7C-182.1,43.9 -184.5,41.3 -186.3,38.4C-174.7,28.5 -160.2,21.9 -147.4,16.4M-117.3,-2L-129.101,-0.8C-134,-15.7 -132.8,-32.4 -129.101,-45.2C-125.2,-58.8 -119,-68.9 -110.7,-75.2C-102.4,-81.4 -88.9,-84.4 -79.2,-77.9C-75.601,-75.5 -72.301,-71.8 -69.2,-66.5C-58.301,-47.9 -57.2,-22.9 -64.7,-1.3C-81,-3.6 -98.601,-3.9 -117.3,-2M-126.3,6L-116.5,5C-99,3.2 -82.601,3.4 -67.4,5.5C-70.4,12.1 -74.2,18.2 -78.801,23.6C-84.301,25.1 -89.7,26 -95.201,26C-99.4,26 -103.4,25.4 -107.101,24.4C-109,23.8 -110.9,23.1 -112.9,22.4C-113.5,22.2 -114.101,21.9 -114.801,21.7L-114.701,21.6C-119.8,16.9 -123.601,11.6 -126.3,6M-106.7,263.9C-106.601,266.7 -106.5,269.6 -106.5,272.7C-106.5,273.5 -106.4,274.3 -106.2,274.9C-111.601,275.1 -116.7,275.3 -121.8,275.4C-127,275.6 -132.2,275.8 -137.7,275.9C-143.2,276.1 -148.2,276 -152.101,274.2C-150.3,271.5 -150.5,268.3 -150.9,266.1C-151.7,261.2 -153.3,256.7 -155.3,252.3C-154.101,251 -153,249.9 -151.9,248.8C-150.4,247.2 -148.9,245.7 -147.2,244C-146.3,243.1 -145.5,242.3 -144.601,241.7C-142.101,239.9 -138.601,239.6 -134.4,239.4L-108,238C-107.3,238 -106.8,238.3 -106.601,238.5C-106.4,238.7 -106,239.2 -106.101,239.9L-106.8,250.2C-107.101,254.9 -106.9,259.3 -106.7,263.9M-82,248.3C-82.301,244.8 -82.2,241.3 -81.601,237.9C-80.7,237.9 -79.7,237.9 -78.601,237.6C-76.7,237.1 -73.2,236.8 -71,236.8L-44.9,236.9C-44.2,236.9 -43.601,237.3 -43.301,237.8C-40.2,243.4 -35.9,248.2 -30.601,251.7C-31.101,253.1 -31.801,254.5 -32.5,256C-33,256.9 -33.4,257.9 -33.801,258.9C-35.4,262.6 -36.101,266 -35.801,269C-35.801,270.7 -35.5,272.5 -34.601,274.1C-34.801,274.2 -35.101,274.4 -35.4,274.6C-38.101,275.8 -41.4,275.9 -44.601,276L-73.301,277.1C-76.9,277.2 -79.801,277.2 -82.101,276.8L-82.101,251.5L-82,248.6L-82,248.3ZM-145.4,-47.1C-142.4,-65.4 -134.101,-80.6 -122.2,-90C-114.2,-96.3 -104.101,-99.8 -94.4,-99.8C-88,-99.8 -82,-98.2 -77.101,-95.2C-57.801,-83.4 -56.101,-79.1 -50.801,-66C-50.4,-65.1 -50.101,-64.2 -49.7,-63.2C-48.101,-59.3 -47.2,-51.7 -46.601,-46.2C-46.4,-44.3 -46.2,-42.7 -46,-41.4C-45.2,-36.2 -45.301,-30.7 -45.5,-25.6L-46.601,2.8C-46.7,6.1 -47,9 -48.5,10.8C-49.601,12.1 -51.5,12.9 -53.4,13.8C-58.101,15.9 -62.801,17.9 -67.4,19.7C-50,-6.8 -47.801,-43.5 -63.4,-69.9C-67.101,-76.1 -71,-80.6 -75.5,-83.6C-86.7,-91 -103,-89.8 -115.101,-80.6C-124.601,-73.4 -131.7,-62.1 -136,-47C-141.4,-28 -141.701,-1.1 -127.201,18.4C-133.701,17.2 -139.9,16 -142.5,11.5C-143.701,9.5 -144,6.7 -144.4,4.3C-146.8,-15.1 -148,-31.2 -145.4,-47.1M52.8,176.8C51.6,170.4 49.899,163.9 48,157.7C46.3,152.4 44.399,147.2 42.6,142.2C40.6,136.9 38.6,131.4 36.899,126C33.8,115.8 31.6,104.9 29.6,94.5C26.3,77.7 22.899,60.2 15.1,44.4C13.699,41.6 12.199,38.7 9.8,36.3C7.5,33.9 4.3,31.5 1.199,29.2C-1.5,27.2 -4.2,25.2 -6.101,23.3C-10.101,19.3 -21.101,10.3 -39.801,8C-39.5,6.2 -39.4,4.5 -39.4,3.1L-38.301,-25.3C-38.101,-30.8 -37.9,-36.6 -38.801,-42.4C-39,-43.6 -39.2,-45.2 -39.4,-47C-40.101,-52.9 -41.101,-61 -43,-65.8C-43.4,-66.8 -43.801,-67.7 -44.101,-68.6C-49.7,-82.5 -52,-88.2 -73.301,-101.1C-79.4,-104.8 -86.601,-106.7 -94.3,-106.7C-105.6,-106.7 -117.3,-102.6 -126.5,-95.4C-139.8,-85 -149,-68.2 -152.3,-48.1C-155.1,-31.4 -153.8,-14.7 -151.2,5.2C-151,6.7 -150.8,8.4 -150.3,10.1C-170,18.6 -193.4,29.3 -206.8,49.6C-211.6,56.8 -215.3,65.5 -218.5,77C-223.6,95.3 -225.8,114.1 -225.1,133.1L-225.1,133.3C-225,135 -225,136.7 -225.4,138C-225.7,139 -226.4,140 -227.1,141.1C-227.7,142 -228.3,142.9 -228.8,143.9C-231.1,148.5 -231,153.5 -231,158L-231,161.7C-231.2,168.3 -233,174.8 -234.8,181.7C-237,189.6 -239.2,197.8 -238.8,206.3C-238.2,219.2 -231.9,230.8 -226.3,241L-205.9,278C-204.5,280.6 -201.8,285.4 -197.601,288.3C-196,289.4 -194.2,290.3 -192.101,290.6C-191.4,292.7 -190.3,294.6 -188.9,296.3C-187.601,297.9 -186,299.3 -184.2,300.4C-183.2,301 -182,301.6 -180.9,302C-178.8,302.7 -176.601,303.1 -174.4,303.1C-170.3,303.1 -166.2,301.9 -162.5,300.5C-160.9,299.9 -159.4,299.2 -158.1,298.5C-157.5,298.2 -157,298 -156.4,297.7C-155.3,298.8 -154.1,299.7 -152.7,300.5C-147.4,303.5 -139.9,304.4 -131.8,304.4C-124,304.4 -115.8,303.5 -108.6,302.8C-107.1,302.6 -105.7,302.5 -104.3,302.4C-100.9,302.1 -97.4,302.1 -93.6,302.1C-91.2,302.1 -88.7,302.1 -86.2,302C-81.9,301.8 -77.4,301.7 -73.2,302C-71.2,302.2 -69.2,302.4 -67,302.7C-65.8,302.9 -64.7,303 -63.5,303.1C-55.3,304.1 -47,304.1 -38.8,303.2C-36.9,303 -35.101,302.8 -33.2,302.5C-25.101,301.4 -17.4,300.4 -10.4,303C-9.7,303.3 -8.4,303.7 -6.9,303.5C-4.7,303.1 -3.5,301.5 -2.9,300.5C-2.8,300.4 -2.8,300.3 -2.7,300.2C-1.9,298.9 -0.9,297.6 0.1,296.4C1.899,294.3 4,292.3 6.2,290.7L7.399,289.8L7.5,289.3C8.2,289 8.8,288.7 9.399,288.4C14.3,285.7 17.6,280.9 20.399,276.5C36.1,251.1 59.8,213.3 52.8,176.8" style="fill-rule:nonzero;"/>
        </g>
        <g transform="matrix(1,0,0,1,654.1,405.8)">
            <path d="M0,-48.7L-9.199,-31L-3.199,-31L-12.399,-14.7L-6.6,-14.7L-17.8,-3.5L-27.8,-16.1L-26.1,-16.1L-15.1,-33.8L-29.699,-33.8L-20.399,-48.8L0,-48.8L0,-48.7ZM-42.6,-26.7L-28,-26.7L-30.3,-23L-42.6,-23L-18.6,7L10.101,-21.7L-0.6,-21.7L8.601,-38L2.2,-38L11.4,-55.7L-24.699,-55.7L-42.6,-26.7Z" style="fill-rule:nonzero;"/>
        </g>
        <g transform="matrix(1,0,0,1,507.4,646.8)">
            <path d="M0,-25.2L8.3,-25.2C10.2,-25.2 11.7,-25.099 12.7,-24.8C13.7,-24.5 14.6,-23.9 15.2,-22.8C15.9,-21.8 16.2,-20.599 16.2,-19.3L16.2,-19.099C16.2,-17.2 15.6,-15.8 14.4,-14.7C13.2,-13.599 11.2,-13.099 8.4,-13.099L0,-13.099L0,-25.2ZM0,-9.2L8.4,-9.2C12.4,-9.2 15.5,-10.099 17.7,-11.8C19.8,-13.5 20.9,-16.099 20.9,-19.4L20.9,-19.5C20.9,-21.599 20.4,-23.4 19.3,-25.099C18.2,-26.8 16.8,-27.899 14.9,-28.399C13.1,-28.899 10.8,-29.2 8.1,-29.2L-4.4,-29.2L-4.4,4L0,4L0,-9.2Z" style="fill:white;fill-rule:nonzero;"/>
        </g>
        <g transform="matrix(1,0,0,1,548.7,650.499)">
            <path d="M0,-23.499L0,-6.399C-2,-3.799 -4.2,-2.499 -6.6,-2.499C-8.2,-2.499 -9.4,-2.899 -10,-3.799C-10.7,-4.699 -11,-6.1 -11,-7.999L-11,-23.6L-15.3,-23.6L-15.3,-7.799C-15.3,-1.899 -12.6,1.101 -7.2,1.101C-4.5,1.101 -2.1,-0.1 0,-2.499L0,0.601L4.3,0.601L4.3,-23.499L0,-23.499Z" style="fill:white;fill-rule:nonzero;"/>
        </g>
        <g transform="matrix(1,0,0,1,563.6,639.599)">
            <path d="M0,11.3L0,-21.899L-4.3,-21.899L-4.3,11.3L0,11.3Z" style="fill:white;fill-rule:nonzero;"/>
        </g>
        <g transform="matrix(1,0,0,1,586.3,628.3)">
            <path d="M0,21.2C1.8,19.9 2.8,17.9 3.1,15.4L-1.3,15.4C-1.4,16.8 -1.9,17.9 -2.9,18.7C-3.9,19.5 -5.2,19.8 -6.6,19.8C-8.6,19.8 -10.3,19 -11.6,17.5C-12.9,15.9 -13.5,13.599 -13.5,10.599C-13.5,7.5 -12.9,5.2 -11.6,3.7C-10.3,2.099 -8.7,1.4 -6.6,1.4C-5.2,1.4 -3.9,1.8 -2.9,2.5C-1.9,3.3 -1.3,4.4 -1.3,5.8L3.1,5.8C2.8,3.3 1.7,1.4 0,0C-0.4,-0.3 -0.8,-0.6 -1.3,-0.8C-2.8,-1.6 -4.6,-2 -6.6,-2C-9.5,-2 -11.9,-1.2 -13.8,0.3C-14.2,0.599 -14.5,0.9 -14.8,1.3C-16.9,3.5 -17.9,6.599 -17.9,10.599C-17.9,14.599 -16.9,17.7 -14.8,19.9C-12.7,22.099 -10,23.2 -6.6,23.2C-4,23.2 -1.8,22.5 0,21.2" style="fill:white;fill-rule:nonzero;"/>
        </g>
        <g transform="matrix(1,0,0,1,611.4,634)">
            <path d="M0,9.9C0,7.6 -0.7,6.001 -2.101,5.001C-3.5,4.1 -5.7,3.201 -8.601,2.501C-11.5,1.8 -13.3,1.201 -14.101,0.8C-14.8,0.4 -15.2,-0.299 -15.2,-1.2C-15.2,-2.2 -14.7,-2.999 -13.8,-3.6C-12.9,-4.1 -11.7,-4.4 -10.2,-4.4C-6.9,-4.4 -5.2,-3.299 -5.101,-0.999L-0.801,-0.999C-0.9,-4.4 -2.7,-6.499 -6.301,-7.299C-7.5,-7.6 -8.9,-7.7 -10.5,-7.7C-11.8,-7.7 -13,-7.499 -14,-7.2C-15.101,-6.9 -16.2,-6.4 -17,-5.7C-18.601,-4.4 -19.4,-2.7 -19.4,-0.7C-19.4,1.501 -18.7,3.1 -17.4,3.9C-16.101,4.8 -14,5.6 -11.2,6.3C-8.4,7.001 -6.5,7.6 -5.601,8.001C-4.7,8.4 -4.2,9.201 -4.2,10.3C-4.2,11.4 -4.7,12.3 -5.601,13.1C-6.5,13.8 -7.9,14.201 -9.7,14.201C-13.7,14.201 -15.7,12.701 -15.7,9.8L-20,9.8C-19.7,15.001 -16.3,17.6 -9.7,17.6C-6.7,17.6 -4.4,16.9 -2.7,15.4C-0.801,13.9 0,12.1 0,9.9" style="fill:white;fill-rule:nonzero;"/>
        </g>
        <g transform="matrix(1,0,0,1,0,340)">
            <rect x="616.4" y="277.7" width="4.3" height="4.6" style="fill:white;"/>
        </g>
        <g transform="matrix(1,0,0,1,620.7,650.6)">
            <path d="M0,0.3L0,-23.8L-4.3,-23.8L-4.3,0.3L0,0.3Z" style="fill:white;fill-rule:nonzero;"/>
        </g>
        <g transform="matrix(1,0,0,1,659.7,640.3)">
            <path d="M0,-4.7L-13.5,-4.7C-13.2,-7 -12.4,-8.8 -11.2,-9.9C-10,-11 -8.5,-11.599 -6.8,-11.599C-5,-11.599 -3.601,-11 -2.4,-9.9C-1.101,-8.7 -0.3,-7 0,-4.7M-6.3,10.2C-3.5,10.2 -1.2,9.5 0.7,8.2C2.6,6.901 3.7,4.901 4.1,2.5L-0.3,2.5C-0.4,3.901 -1,5 -2.2,5.8C-3.4,6.6 -4.8,6.901 -6.3,6.901C-8.3,6.901 -10,6.2 -11.3,4.901C-12.7,3.6 -13.4,1.5 -13.601,-1.3L4.5,-1.3L4.5,-2.3C4.5,-6.3 3.5,-9.4 1.399,-11.599C0.8,-12.3 0.1,-12.8 -0.7,-13.3C-2.4,-14.4 -4.5,-14.9 -6.9,-14.9C-10.101,-14.9 -12.7,-13.9 -14.7,-11.9C-14.8,-11.8 -15,-11.7 -15.101,-11.5C-17.2,-9.3 -18.2,-6.2 -18.2,-2.3C-18.2,1.7 -17.101,4.8 -15,7C-12.7,9.1 -9.8,10.2 -6.3,10.2" style="fill:white;fill-rule:nonzero;"/>
        </g>
        <g transform="matrix(1,0,0,1,658.7,622.5)">
            <path d="M0,-6.4L-5.3,-6.4L-5.3,-6.299L-8.3,0L-5,0L0,-6.4Z" style="fill:white;fill-rule:nonzero;"/>
        </g>
        <g transform="matrix(1,0,0,1,685.2,637.8)">
            <path d="M0,0.3C-1.4,-0.599 -3.601,-1.5 -6.5,-2.2C-9.4,-2.9 -11.2,-3.5 -12,-3.9C-12.7,-4.3 -13.101,-5 -13.101,-5.9C-13.101,-6.9 -12.601,-7.7 -11.7,-8.3C-10.8,-8.8 -9.601,-9.099 -8.101,-9.099C-4.8,-9.099 -3.101,-8 -3,-5.7L1.3,-5.7C1.2,-7.5 0.7,-9 -0.4,-10.099C-2,-11.7 -4.601,-12.5 -8.3,-12.5C-10.5,-12.5 -12.3,-12.099 -13.8,-11.2C-14.2,-11 -14.5,-10.8 -14.9,-10.5C-16.5,-9.2 -17.3,-7.5 -17.3,-5.5C-17.3,-3.3 -16.601,-1.7 -15.3,-0.9C-14,0 -11.9,0.8 -9.101,1.5C-6.3,2.2 -4.4,2.8 -3.5,3.2C-2.601,3.6 -2.101,4.401 -2.101,5.5C-2.101,6.6 -2.601,7.5 -3.5,8.3C-4.4,9 -5.8,9.401 -7.601,9.401C-11.601,9.401 -13.601,7.901 -13.601,5L-17.9,5C-17.601,10.2 -14.2,12.8 -7.601,12.8C-4.601,12.8 -2.3,12.1 -0.601,10.6C1.1,9.2 2,7.3 2,5.1C2.1,2.8 1.399,1.2 0,0.3" style="fill:white;fill-rule:nonzero;"/>
        </g>
        <g transform="matrix(1,0,0,1,494.5,664)">
            <path d="M0,33.2L4.4,33.2L4.4,18.2L20,18.2L20,14.2L4.4,14.2L4.4,3.899L22.4,3.899L22.4,0L0,0L0,33.2Z" style="fill:white;fill-rule:nonzero;"/>
        </g>
        <g transform="matrix(1,0,0,1,537,678.3)">
            <path d="M0,13.8C-1.3,15.401 -2.9,16.1 -5,16.1C-7.1,16.1 -8.7,15.3 -10,13.8C-11.3,12.2 -11.9,9.901 -11.9,6.901C-11.9,3.8 -11.3,1.5 -10,-0C-8.7,-1.599 -7.1,-2.3 -5,-2.3C-2.9,-2.3 -1.3,-1.5 0,-0C1.3,1.6 1.9,3.901 1.9,6.901C1.9,10 1.3,12.3 0,13.8M-4.9,-5.7C-8.3,-5.7 -11.1,-4.599 -13.1,-2.4C-15.2,-0.2 -16.2,2.901 -16.2,6.901C-16.2,10.901 -15.2,14 -13.1,16.2C-11,18.401 -8.3,19.5 -4.9,19.5C-1.5,19.5 1.3,18.401 3.3,16.2C5.4,14 6.4,10.901 6.4,6.901C6.4,2.901 5.4,-0.2 3.3,-2.4C1.2,-4.599 -1.5,-5.7 -4.9,-5.7" style="fill:white;fill-rule:nonzero;"/>
        </g>
        <g transform="matrix(1,0,0,1,0,461.3)">
            <rect x="548.2" y="202.7" width="4.3" height="33.3" style="fill:white;"/>
        </g>
        <g transform="matrix(1,0,0,1,564.3,671.1)">
            <path d="M0,22.4C-0.4,22 -0.6,20.9 -0.6,19.299L-0.6,5.4L3.3,5.4L3.3,2L-0.6,2L-0.6,-4L-4.9,-4L-4.9,2L-7.9,2L-7.9,5.4L-4.9,5.4L-4.9,19.1C-4.9,20.799 -4.8,22.1 -4.6,23.1C-4.4,24.1 -3.9,24.9 -3.1,25.5C-2.3,26.1 -1,26.4 0.8,26.4C1.9,26.4 2.9,26.3 3.9,26.1L3.9,22.9C3.2,23 2.5,23.1 1.8,23.1C0.9,23.1 0.4,22.9 0,22.4" style="fill:white;fill-rule:nonzero;"/>
        </g>
        <g transform="matrix(1,0,0,1,587.8,669.5)">
            <path d="M0,22.2L-9,-5.5L-15.6,-5.5L-15.6,27.7L-11.4,27.7L-11.4,-0.601L-1.9,27.7L2,27.7L11.5,-0.601L11.5,27.7L15.7,27.7L15.7,-5.5L9.1,-5.5L0,22.2Z" style="fill:white;fill-rule:nonzero;"/>
        </g>
        <g transform="matrix(1,0,0,1,617.6,663.4)">
            <path d="M0,6.4L3.4,6.4L8.4,0L3,0L0,6.4Z" style="fill:white;fill-rule:nonzero;"/>
        </g>
        <g transform="matrix(1,0,0,1,613.4,687.4)">
            <path d="M0,-4.501C0.3,-6.801 1.1,-8.601 2.3,-9.7C3.5,-10.801 5,-11.4 6.699,-11.4C8.5,-11.4 9.899,-10.801 11.1,-9.7C12.3,-8.501 13.1,-6.801 13.399,-4.501L0,-4.501ZM6.699,-14.801C3.3,-14.801 0.6,-13.7 -1.5,-11.501C-3.601,-9.301 -4.601,-6.2 -4.601,-2.301C-4.601,1.699 -3.5,4.8 -1.4,6.999C0.699,9.199 3.6,10.3 7.1,10.3C9.899,10.3 12.199,9.6 14.1,8.3C16,6.999 17.1,4.999 17.5,2.6L13.1,2.6C13,3.999 12.399,5.1 11.199,5.899C10,6.699 8.6,6.999 7.1,6.999C5.1,6.999 3.399,6.3 2.1,4.999C0.699,3.699 0,1.6 -0.2,-1.2L17.899,-1.2L17.899,-2.2C17.899,-6.2 16.899,-9.301 14.8,-11.501C12.899,-13.7 10.199,-14.801 6.699,-14.801" style="fill:white;fill-rule:nonzero;"/>
        </g>
        <g transform="matrix(1,0,0,1,655.2,688)">
            <path d="M0,-14.8L-5.4,-14.8L-14.7,-5.2L-14.7,-24L-19,-24L-19,9.2L-14.7,9.2L-14.7,-0.3L-12,-3L-4.2,9.2L0.899,9.2L-9.101,-5.901L0,-14.8Z" style="fill:white;fill-rule:nonzero;"/>
        </g>
        <g transform="matrix(1,0,0,1,0,433.099)">
            <rect x="671.4" y="231.101" width="4.199" height="4.699" style="fill:white;"/>
        </g>
        <g transform="matrix(1,0,0,1,0,433.099)">
            <rect x="663" y="231.101" width="4.2" height="4.699" style="fill:white;"/>
        </g>
        <g transform="matrix(1,0,0,1,674.2,678.3)">
            <path d="M0,13.8C-1.3,15.401 -2.9,16.1 -5,16.1C-7,16.1 -8.7,15.3 -10,13.8C-11.3,12.2 -11.9,9.901 -11.9,6.901C-11.9,3.8 -11.3,1.5 -10,-0C-8.7,-1.599 -7.101,-2.3 -5,-2.3C-3,-2.3 -1.3,-1.5 0,-0C1.3,1.6 1.899,3.901 1.899,6.901C1.899,10 1.3,12.3 0,13.8M-5,-5.7C-8.4,-5.7 -11.2,-4.599 -13.2,-2.4C-15.3,-0.2 -16.3,2.901 -16.3,6.901C-16.3,10.901 -15.3,14 -13.2,16.2C-11.101,18.401 -8.4,19.5 -5,19.5C-1.601,19.5 1.2,18.401 3.2,16.2C5.3,14 6.3,10.901 6.3,6.901C6.3,2.901 5.3,-0.2 3.2,-2.4C1.2,-4.599 -1.5,-5.7 -5,-5.7" style="fill:white;fill-rule:nonzero;"/>
        </g>
        <g transform="matrix(1,0,0,1,695.9,697.201)">
            <path d="M0,-24.601C-2.4,-24.601 -4.5,-23.301 -6.301,-20.701L-6.301,-24.101L-10.601,-24.101L-10.601,0L-6.301,0L-6.301,-17C-4.7,-19.301 -2.9,-20.401 -0.7,-20.401C0.399,-20.401 1.3,-20.301 1.899,-20.101L1.899,-24.401C1.199,-24.5 0.6,-24.601 0,-24.601" style="fill:white;fill-rule:nonzero;"/>
        </g>
    </g>
</svg>
